<?xml version="1.0" encoding="utf-8"?>
<!-- Generator: Adobe Illustrator 16.0.0, SVG Export Plug-In . SVG Version: 6.00 Build 0)  -->
<!DOCTYPE svg PUBLIC "-//W3C//DTD SVG 1.1//EN" "http://www.w3.org/Graphics/SVG/1.1/DTD/svg11.dtd">
<svg version="1.1" id="DESERT" xmlns="http://www.w3.org/2000/svg" xmlns:xlink="http://www.w3.org/1999/xlink" x="0px" y="0px"
	 width="500px" height="500px" viewBox="0 0 500 500" enable-background="new 0 0 500 500" xml:space="preserve">
<g>
	<g>
		<path fill-rule="evenodd" clip-rule="evenodd" fill="#414042" d="M202.688,285.536v-0.024c0-1.415-1.141-2.562-2.546-2.562
			h-25.446c-1.406,0-2.546,1.146-2.546,2.562v0.024c0,1.415,1.14,2.556,2.546,2.556h25.446
			C201.547,288.092,202.688,286.951,202.688,285.536z M217.925,323.908h-27.962c-1.406,0-2.546,1.146-2.546,2.562v0.024
			c0,1.409,1.141,2.556,2.546,2.556h27.962c1.405,0,2.546-1.146,2.546-2.556v-0.024C220.471,325.055,219.33,323.908,217.925,323.908
			z M131.432,285.566c1.406,0,2.546-1.146,2.546-2.555v-0.03c0-1.409-1.141-2.556-2.546-2.556H111.02
			c-1.405,0-2.543,1.146-2.543,2.556v0.03c0,1.408,1.138,2.555,2.543,2.555H131.432z M164.517,307.266
			c0-2.116-1.711-3.836-3.818-3.836H97.023c-2.107,0-3.817,1.72-3.817,3.836s1.71,3.836,3.817,3.836h63.675
			C162.806,311.102,164.517,309.382,164.517,307.266z M71.647,272.754H51.26c-0.695,0-1.259,0.567-1.259,1.269
			c0,0.695,0.564,1.263,1.259,1.263h20.388c0.695,0,1.256-0.567,1.256-1.263C72.904,273.321,72.343,272.754,71.647,272.754z
			 M163.257,359.726h-45.889c-4.912,0-8.892,3.994-8.892,8.935c0,4.928,3.979,8.928,8.892,8.928h45.889c4.913,0,8.892-4,8.892-8.928
			C172.149,363.72,168.169,359.726,163.257,359.726z M324.872,387.87h-25.504c-2.8,0-5.074,2.281-5.074,5.099
			s2.274,5.099,5.074,5.099h25.504c2.806,0,5.08-2.281,5.08-5.099S327.678,387.87,324.872,387.87z M289.232,349.443h-38.195
			c-1.406,0-2.546,1.141-2.546,2.555v0.024c0,1.415,1.14,2.562,2.546,2.562h38.195c1.408,0,2.549-1.146,2.549-2.562v-0.024
			C291.781,350.584,290.641,349.443,289.232,349.443z M254.824,290.708c-2.107,0-3.814,1.714-3.814,3.83
			c0,2.122,1.707,3.836,3.814,3.836h53.441c2.104,0,3.817-1.714,3.817-3.836c0-2.116-1.714-3.83-3.817-3.83H254.824z
			 M337.581,274.022c0-0.701-0.561-1.269-1.256-1.269h-33.14c-0.695,0-1.256,0.567-1.256,1.269c0,0.695,0.561,1.263,1.256,1.263
			h33.14C337.021,275.285,337.581,274.718,337.581,274.022z M393.529,326.445h-58.546c-4.232,0-7.659,3.428-7.659,7.66
			s3.427,7.66,7.659,7.66h58.546c4.232,0,7.66-3.428,7.66-7.66S397.762,326.445,393.529,326.445z M304.467,101.433L192.802,213.634
			l-55.027-55.942L29.616,267.649h109.43h106.886h223.952L304.467,101.433z M152.594,254.037h-13.548v-72.542l42.772,43.178
			L152.594,254.037z M306.711,137.71L416.32,247.073H306.612L306.711,137.71z"/>
	</g>
</g>
</svg>
