<?xml version="1.0" encoding="utf-8"?>
<!-- Generator: Adobe Illustrator 16.0.0, SVG Export Plug-In . SVG Version: 6.00 Build 0)  -->
<!DOCTYPE svg PUBLIC "-//W3C//DTD SVG 1.1//EN" "http://www.w3.org/Graphics/SVG/1.1/DTD/svg11.dtd">
<svg version="1.1" id="FOUNTAIN_1_" xmlns="http://www.w3.org/2000/svg" xmlns:xlink="http://www.w3.org/1999/xlink" x="0px"
	 y="0px" width="500px" height="500px" viewBox="0 0 500 500" enable-background="new 0 0 500 500" xml:space="preserve">
<path fill-rule="evenodd" clip-rule="evenodd" fill="#414042" d="M249,444.732c-114.349,0-207.046-33.397-207.046-74.598
	c0-39.106,83.539-71.163,189.818-74.32c0.039,11.926,0.074,23.855,0.131,35.782c0.006,1.313,0,2.625,0,4.162
	c-2.572,0.321-4.698,0.538-6.812,0.856c-8.391,1.267-16.803,2.436-25.158,3.91c-3.661,0.648-5.531,3.601-4.88,6.67
	c0.699,3.309,3.619,4.971,7.496,4.252c1.588-0.295,3.164-0.685,4.764-0.907c7.966-1.115,15.94-2.188,24.626-3.372
	c0,2.914-0.048,5.031,0.009,7.148c0.116,4.341,1.951,6.526,5.441,6.58c3.607,0.057,5.745-2.334,5.867-6.705
	c0.077-2.834,0.021-5.673,0.006-8.507c-0.089-16.699-0.146-33.395-0.214-50.094c1.983-0.018,3.958-0.054,5.953-0.054
	c1.767,0,3.503,0.033,5.257,0.048c-0.023,5.546-0.054,11.091-0.083,16.634c-0.083,14.046-0.042,28.093,0.018,42.137
	c0.023,4.171,2.123,6.47,5.596,6.529c3.562,0.062,5.555-2.103,5.703-6.324c0.078-2.1,0.013-4.205,0.013-6.664
	c3.396,0.253,6.06,0.538,8.729,0.625c3.759,0.127,6.244-1.934,6.477-5.184c0.237-3.396-1.73-5.616-5.561-6.08
	c-3.051-0.369-6.113-0.586-9.289-0.883c-0.125-0.993-0.321-1.778-0.315-2.563c0.06-12.67,0.102-25.34,0.143-38.013
	c106.538,3.066,190.359,35.164,190.359,74.336C456.046,411.335,363.346,444.732,249,444.732z M111.369,381.211
	c-2.623-1.867-5.367-3.643-7.692-5.846c-5.983-5.664-5.983-10.909-0.137-16.66c1.813-1.781,4.35-2.955,5.78-4.96
	c1.153-1.62,1.944-4.317,1.412-6.093c-0.529-1.757-2.914-2.955-4.397-4.32c-1.903,0.848-3.185,1.106-4.041,1.855
	c-3.429,2.994-7.184,5.774-9.973,9.305c-6.173,7.808-6.337,17.281,0.015,24.896c3.717,4.457,8.632,7.992,13.327,11.516
	c2.923,2.191,6.369,1.237,8.09-1.448C115.606,386.561,114.693,383.575,111.369,381.211z M150.651,332.058
	c-0.306-2.783-2.991-4.484-5.742-3.771c-7.127,1.853-14.204,3.967-21.153,6.404c-2.583,0.907-3.945,3.67-2.673,6.337
	c0.919,1.918,2.94,3.31,4.249,4.7c8.403-2.643,15.911-4.715,23.13-7.537C149.845,337.65,150.871,334.076,150.651,332.058z
	 M146.595,400.488c-0.767,2.984,0.44,5.637,3.383,6.445c5.025,1.393,10.175,2.438,15.337,3.194c3.086,0.452,5.132-1.6,5.709-4.556
	c0.594-3.051-0.91-5.501-3.789-6.286c-4.784-1.293-9.711-2.055-14.317-2.991C149.542,396.12,147.356,397.532,146.595,400.488z
	 M211.57,328.531c4.314-0.562,6.759-2.777,6.453-6.149c-0.312-3.414-3.048-5.335-7.434-5.721
	c-14.24,2.084-28.489,4.106-42.713,6.292c-4.279,0.656-6.536,3.448-5.989,6.711c0.607,3.606,3.422,5.061,8.082,4.424
	C183.831,332.188,197.696,330.336,211.57,328.531z M205.282,365.897c-1.668-0.496-3.464-0.556-5.15-1.005
	c-6.179-1.645-12.337-3.375-18.504-5.069c0.062-0.565,0.125-1.127,0.188-1.692c1.802-0.806,3.654-1.525,5.399-2.44
	c2.846-1.49,4.172-3.818,3.137-7.023c-0.975-3.009-4.044-4.653-7.122-3.429c-3.345,1.329-6.779,2.807-9.619,4.954
	c-6.443,4.873-6.452,12.241,0.033,17.002c8.988,6.592,19.749,8.236,30.424,9.688c2.974,0.404,5.007-1.787,5.358-4.915
	C209.777,368.833,208.229,366.771,205.282,365.897z M228.358,369.029c-2.284-0.182-4.567-0.443-6.854-0.458
	c-3.455-0.027-5.79,1.748-6.093,5.188c-0.282,3.217,1.501,5.391,4.784,5.968c1.853,0.327,3.744,0.41,5.406,0.583
	c0.895,0,1.57-0.007,2.242,0c4.24,0.044,6.56-1.787,6.682-5.281C234.645,371.577,232.367,369.347,228.358,369.029z M210.934,404.604
	c-4.386-0.144-6.976,1.843-7.071,5.34c-0.095,3.426,2.429,5.703,6.717,5.947c7.523,0.428,15.055,0.797,22.581,1.195
	c0.003,0.077,0.006,0.148,0.009,0.231c4.71,0,9.423,0.023,14.133-0.012c4.808-0.036,7.311-1.938,7.424-5.549
	c0.113-3.705-2.254-5.685-7.062-5.857C235.423,405.459,223.179,405.02,210.934,404.604z M265.372,368.432
	c-2.558-0.021-5.114,0.205-7.672,0.323c0,0.045,0,0.09,0,0.134c-2.831,0-5.667-0.077-8.492,0.021
	c-3.506,0.128-5.596,2.016-5.635,5.548c-0.039,3.586,2.225,5.566,5.593,5.626c5.65,0.102,11.317-0.125,16.966-0.413
	c3.467-0.179,5.453-2.236,5.513-5.745C271.693,370.783,269.005,368.461,265.372,368.432z M350.917,401.011
	c0.803,3.122,3.688,5.02,6.839,4.009c7.654-2.475,15.277-5.091,22.747-8.067c1.79-0.714,2.926-3.06,3.717-3.937
	c-0.012-4.957-3.747-7.817-7.314-6.625c-7.505,2.507-14.98,5.129-22.402,7.883C351.512,395.386,350.079,397.743,350.917,401.011z
	 M281.244,413.208c1.492,1.767,4.341,2.385,6.577,3.521c0.148-0.268,0.297-0.535,0.446-0.803c6.148-0.583,12.31-1.082,18.446-1.772
	c3.932-0.439,5.995-2.974,5.603-6.47c-0.363-3.259-2.729-5.055-6.685-4.752c-6.696,0.506-13.387,1.083-20.064,1.79
	C281.071,405.203,278.508,409.967,281.244,413.208z M312.893,320.547c-11.513-1.184-23.038-2.227-34.562-3.324
	c-3.925,0.077-6.637,2.135-6.94,5.459c-0.303,3.238,2.034,5.611,6.06,6.144c0.529,0.068,1.071,0.092,1.606,0.14
	c10.858,0.948,21.724,1.879,32.577,2.854c4.305,0.387,7.059-1.347,7.486-4.826C319.529,323.628,317.157,320.987,312.893,320.547z
	 M323.461,349.196c-1.772-1.195-3.693-2.399-5.715-2.956c-7.892-2.174-15.819-4.23-23.806-6.021c-3.164-0.71-6.09,1.624-6.435,4.701
	c-0.369,3.253,1.201,5.427,4.377,6.301c1.166,0.321,2.385,0.435,3.568,0.676c7.195,1.465,14.475,2.664,21.914,6.823
	c-2.277,1.064-3.545,1.9-4.936,2.266c-6.363,1.671-12.738,3.31-19.155,4.758c-4.198,0.948-6.47,3.271-5.988,6.669
	c0.487,3.396,3.318,5.421,7.677,4.487c7.737-1.659,15.391-3.752,23.021-5.869c1.897-0.526,3.669-1.698,5.341-2.813
	C331.388,362.82,331.453,354.593,323.461,349.196z M381.181,337.392c-9.39-3.609-18.911-6.884-28.462-10.044
	c-3.146-1.041-6.244,0.844-6.957,3.817c-0.756,3.182,0.428,5.703,3.514,6.824c9.456,3.435,18.959,6.768,28.486,10.012
	c3.669,1.249,7.225-1.383,7.38-6.589C384.303,340.52,383.066,338.117,381.181,337.392z M402.09,350.097
	c-2.283-2.058-5.049-1.965-7.332,0.144c-2.427,2.235-2.552,4.924-0.66,7.633c0.535,0.767,1.261,1.395,1.861,2.123
	c4.258,5.173,4.216,9.435-0.375,14.35c-1.736,1.861-3.877,3.336-5.744,5.075c-2.254,2.091-2.849,4.606-1.16,7.273
	c1.689,2.664,4.294,3.231,7.089,2.138c7.339-2.875,14.569-13.817,14.611-21.867C410.392,359.98,407.062,354.575,402.09,350.097z
	 M231.267,217.354c-0.167-13.499-1.719-26.963-7.113-39.6c-10.588-24.81-38.91-29.044-56.29-8.427
	c-7.9,9.373-11.059,20.511-11.808,32.503c-0.06,0.942-0.012,1.894-0.11,2.833c-0.345,3.203-2.399,4.939-5.367,5.031
	c-3.203,0.102-5.635-1.754-5.736-5.061c-0.648-21.456,10.439-49.962,37.275-58.127c20.33-6.185,42.178,4.353,51.539,24.584
	c6.357,13.74,8.59,28.47,8.786,43.337c0.357,27.052,0.497,54.108,0.604,81.163c-3.785,0.039-7.543,0.113-11.275,0.224
	C231.686,269.66,231.591,243.505,231.267,217.354z M254.959,214.19c0.231-13.508,2.188-26.921,7.272-39.606
	c6.981-17.41,19.523-27.926,38.5-29.544c15.337-1.306,27.552,5.298,37.257,16.681c10.14,11.888,14.41,26.044,14.665,41.5
	c0.065,3.975-2.301,6.553-5.619,6.556c-3.301,0.006-5.46-2.486-5.62-6.527c-0.512-13.035-3.937-25.024-12.768-35
	c-16.628-18.774-43.555-15.105-54.455,7.466c-5.936,12.301-7.708,25.652-7.904,38.994c-0.404,27.025-0.511,54.057-0.601,81.088
	c-3.782-0.106-7.594-0.178-11.43-0.214C254.388,268.453,254.495,241.317,254.959,214.19z M373.491,159.729
	c-3.044-0.08-5.453-2.756-5.269-5.857c0.172-2.887,2.747-5.272,5.584-5.171c2.86,0.101,5.347,2.643,5.353,5.477
	C379.171,157.214,376.519,159.81,373.491,159.729z M347.225,241.757c2.938,0.06,5.376,2.465,5.417,5.341
	c0.042,3.012-2.622,5.644-5.655,5.587c-2.872-0.057-5.358-2.542-5.405-5.412C341.527,244.246,344.144,241.691,347.225,241.757z
	 M341.408,222.174c0.119-3.642,2.408-6.128,5.543-6.164c3.115-0.039,5.488,2.459,5.709,6.063c0.064,1.073,0.012,2.149,0.012,3.226
	c-0.019,0-0.03,0-0.048,0c0,1.48,0.173,2.982-0.036,4.43c-0.463,3.256-2.551,5.168-5.744,5.073c-3.164-0.095-5.239-1.98-5.394-5.37
	C341.343,227.018,341.331,224.592,341.408,222.174z M351.423,137.196c-3.057,0.086-5.513-2.12-5.691-5.105
	c-0.166-2.887,2.2-5.483,5.156-5.655c3.259-0.19,5.798,2.12,5.846,5.311C356.781,134.755,354.485,137.113,351.423,137.196z
	 M326.356,124.045c-5.881-2.581-11.751-5.572-17.941-6.987c-15.129-3.455-27.183,1.989-36.229,14.43
	c-3.646,5.01-6.648,6.17-9.771,3.806c-3.033-2.301-2.801-5.777,0.714-10.657c14.213-19.755,36.608-25.194,60.776-14.677
	c2.95,1.284,5.894,2.735,8.517,4.567c1.475,1.026,2.295,2.992,2.836,3.744C335.087,123.977,330.787,125.99,326.356,124.045z
	 M249.958,161.811c-3.318,0.868-5.941-1.184-7.178-5.364c-1.109-3.737-2.173-7.517-3.675-11.105
	c-9.845-23.493-35.224-34.207-59.011-25.019c-4.127,1.597-7.303,0.622-8.51-2.611c-1.234-3.294,0.151-6.627,4.341-7.832
	c6.928-1.992,14.064-3.253,21.114-4.82c27.335,0.928,48.018,17.341,55.903,45.158c0.327,1.163,0.66,2.334,0.91,3.517
	C254.757,158.046,253.359,160.918,249.958,161.811z M253.847,111.063c-0.398,3.259-2.408,5.073-5.75,4.978
	c-3.146-0.092-5.147-1.924-5.329-4.98c-0.256-4.296-0.265-8.635,0.048-12.928c0.223-3.075,2.328-4.767,5.489-4.772
	c3.175-0.003,5.096,1.751,5.525,4.784c0.303,2.111,0.06,4.302,0.06,6.458C253.895,106.757,254.103,108.94,253.847,111.063z
	 M248.361,86.178c-3.536,0.012-5.667-2.367-5.694-6.351c-0.024-3.833,2.275-6.533,5.581-6.56c3.292-0.023,5.647,2.655,5.682,6.47
	C253.972,83.74,251.872,86.164,248.361,86.178z M158.971,128.993c-3.036,0.051-5.379-2.206-5.475-5.266
	c-0.101-3.202,2.376-5.798,5.465-5.732c2.938,0.062,5.299,2.527,5.299,5.53C164.257,126.587,161.977,128.942,158.971,128.993z
	 M150.678,241.754c3.039,0.054,5.319,2.388,5.308,5.43c-0.012,2.974-2.403,5.459-5.317,5.531c-3.024,0.076-5.685-2.665-5.566-5.733
	C145.218,243.993,147.663,241.701,150.678,241.754z M144.918,220.893c0.417-3.179,2.709-5.037,5.956-4.778
	c2.991,0.235,4.894,2.075,5.105,5.248c0.089,1.338,0.015,2.688,0.015,4.032c0.009,0,0.018,0,0.026,0
	c0,1.344,0.062,2.691-0.012,4.032c-0.19,3.393-2.263,5.227-5.409,5.388c-3.03,0.151-5.269-1.666-5.661-4.671
	C144.543,227.104,144.522,223.932,144.918,220.893z M135.882,148.106c-3.036,0.134-5.694-2.406-5.724-5.468
	c-0.03-2.923,2.295-5.349,5.242-5.468c3.081-0.125,5.745,2.37,5.771,5.402C141.195,145.433,138.763,147.978,135.882,148.106z"/>
</svg>
