<?xml version="1.0" encoding="utf-8"?>
<!-- Generator: Adobe Illustrator 16.0.0, SVG Export Plug-In . SVG Version: 6.00 Build 0)  -->
<!DOCTYPE svg PUBLIC "-//W3C//DTD SVG 1.1//EN" "http://www.w3.org/Graphics/SVG/1.1/DTD/svg11.dtd">
<svg version="1.1" id="POND" xmlns="http://www.w3.org/2000/svg" xmlns:xlink="http://www.w3.org/1999/xlink" x="0px" y="0px"
	 width="500px" height="500px" viewBox="0 0 500 500" enable-background="new 0 0 500 500" xml:space="preserve">
<path fill-rule="evenodd" clip-rule="evenodd" fill="#414042" d="M104.972,318.24c10.621,14.776,28.247,24.518,48.165,24.518
	c19.939,0,37.56-9.741,48.171-24.518c10.647,14.776,28.269,24.518,48.192,24.518c19.924,0,37.56-9.741,48.191-24.518
	c10.621,14.776,28.258,24.518,48.171,24.518c19.924,0,37.561-9.741,48.176-24.518c7.776,10.798,19.292,18.89,32.703,22.474
	c-4.568,9.649-9.908,18.858-15.931,27.565c-6.585-4.082-12.302-9.385-16.772-15.608c-10.615,14.807-28.252,24.522-48.176,24.522
	c-19.913,0-37.55-9.716-48.171-24.522c-10.632,14.807-28.268,24.522-48.191,24.522c-19.923,0-37.544-9.716-48.192-24.522
	c-10.611,14.807-28.232,24.522-48.171,24.522c-19.918,0-37.544-9.716-48.165-24.522c-4.471,6.224-10.188,11.532-16.784,15.613
	c-6.017-8.712-11.361-17.921-15.929-27.57C85.674,337.13,97.201,329.043,104.972,318.24z M442.22,273.236v19.38
	c-0.926,5.049-2.028,10.042-3.337,14.951c-18.542-1.015-34.808-10.445-44.845-24.419c-10.615,14.807-28.252,24.522-48.176,24.522
	c-19.913,0-37.55-9.716-48.171-24.522c-10.632,14.807-28.268,24.522-48.191,24.522c-19.923,0-37.544-9.716-48.192-24.522
	c-10.611,14.807-28.232,24.522-48.171,24.522c-19.918,0-37.544-9.716-48.165-24.522c-10.038,13.974-26.313,23.404-44.855,24.419
	c-1.309-4.909-2.411-9.902-3.337-14.951v-19.38c19.923,0,37.56-9.739,48.192-24.518c10.621,14.778,28.247,24.518,48.165,24.518
	c19.939,0,37.56-9.739,48.171-24.518c10.647,14.778,28.269,24.518,48.192,24.518c19.924,0,37.56-9.739,48.191-24.518
	c10.621,14.778,28.258,24.518,48.171,24.518c19.924,0,37.561-9.739,48.176-24.518C404.675,263.497,422.297,273.236,442.22,273.236z
	 M231.393,208.768l26.598,31.122h-88.054l0.005,0.005H81.893l21.584-21.649H88.178l21.827-21.648H97.615l28.3-27.834l28.304,27.834
	h-12.421l21.853,21.648h-15.324l10.658,10.673l17.202-20.151h-18.821l26.856-31.119h-15.247l34.833-40.012l34.833,40.012h-15.283
	l26.892,31.119H231.393z"/>
</svg>
